<svg xmlns="http://www.w3.org/2000/svg" xmlns:xlink="http://www.w3.org/1999/xlink" width="904" zoomAndPan="magnify" viewBox="0 0 678 11.25" height="15" preserveAspectRatio="xMidYMid meet" version="1.0"><defs><clipPath id="50e1e57c12"><path d="M 21.1875 0 L 338.78125 0 L 338.78125 10.171875 L 21.1875 10.171875 Z M 21.1875 0 " clip-rule="nonzero"/></clipPath><clipPath id="262ab009ac"><path d="M 0.1875 0 L 317.78125 0 L 317.78125 10.171875 L 0.1875 10.171875 Z M 0.1875 0 " clip-rule="nonzero"/></clipPath><clipPath id="76b427d21e"><rect x="0" width="318" y="0" height="11"/></clipPath><clipPath id="81f1fc267b"><path d="M 338.78125 0 L 656.375 0 L 656.375 10.171875 L 338.78125 10.171875 Z M 338.78125 0 " clip-rule="nonzero"/></clipPath><clipPath id="4a68d8dc26"><path d="M 0.78125 0 L 318.375 0 L 318.375 10.171875 L 0.78125 10.171875 Z M 0.78125 0 " clip-rule="nonzero"/></clipPath><clipPath id="b766e89ef3"><rect x="0" width="319" y="0" height="11"/></clipPath></defs><g clip-path="url(#50e1e57c12)"><g transform="matrix(1, 0, 0, 1, 21, 0.00000000000000031)"><g clip-path="url(#76b427d21e)"><g clip-path="url(#262ab009ac)"><path fill="#414141" d="M 0.1875 0 L 317.773438 0 L 317.773438 10.171875 L 0.1875 10.171875 Z M 0.1875 0 " fill-opacity="1" fill-rule="nonzero"/></g></g></g></g><g clip-path="url(#81f1fc267b)"><g transform="matrix(1, 0, 0, 1, 338, 0.00000000000000031)"><g clip-path="url(#b766e89ef3)"><g clip-path="url(#4a68d8dc26)"><path fill="#ae2048" d="M 0.78125 0 L 318.367188 0 L 318.367188 10.171875 L 0.78125 10.171875 Z M 0.78125 0 " fill-opacity="1" fill-rule="nonzero"/></g></g></g></g></svg>